<?xml version="1.0" encoding="UTF-8" standalone="no"?>
<svg width="389.114mm" height="68.0861mm"
 xmlns="http://www.w3.org/2000/svg" xmlns:xlink="http://www.w3.org/1999/xlink"  version="1.2" baseProfile="tiny">
<title>Qt SVG Document</title>
<desc>Generated with Qt</desc>
<defs>
</defs>
<g fill="none" stroke="black" stroke-width="1" fill-rule="evenodd" stroke-linecap="square" stroke-linejoin="bevel" >

<g fill="none" stroke="#000000" stroke-opacity="1" stroke-width="1" stroke-linecap="square" stroke-linejoin="bevel" transform="matrix(1,0,0,1,0,0)"
font-family="Ubuntu" font-size="11" font-weight="400" font-style="normal" 
>
</g>

<g fill="none" stroke="#000000" stroke-opacity="1" stroke-width="1" stroke-linecap="square" stroke-linejoin="bevel" transform="matrix(1,0,0,1,0,0)"
font-family="Ubuntu" font-size="11" font-weight="400" font-style="normal" 
>
</g>

<g fill="none" stroke="#000000" stroke-opacity="1" stroke-width="1" stroke-linecap="square" stroke-linejoin="bevel" transform="matrix(1.99494,0,0,1.99494,0.00159595,188.641)"
font-family="Ubuntu" font-size="11" font-weight="400" font-style="normal" 
>
</g>

<g fill="#ffffff" fill-opacity="1" stroke="none" transform="matrix(1.99494,0,0,1.99494,0.00159595,188.641)"
font-family="Ubuntu" font-size="11" font-weight="400" font-style="normal" 
>
<rect x="-0.0008" y="-94.56" width="551.562" height="96.7449"/>
</g>

<g fill="none" stroke="#000000" stroke-opacity="1" stroke-width="1" stroke-linecap="square" stroke-linejoin="bevel" transform="matrix(1.99494,0,0,1.99494,0.00159595,188.641)"
font-family="Ubuntu" font-size="11" font-weight="400" font-style="normal" 
>
</g>

<g fill="none" stroke="#000000" stroke-opacity="1" stroke-width="1" stroke-linecap="square" stroke-linejoin="bevel" transform="matrix(1.99494,0,0,1.99494,0.00159595,188.641)"
font-family="Ubuntu" font-size="11" font-weight="400" font-style="normal" 
>
</g>

<g fill="none" stroke="#000000" stroke-opacity="1" stroke-width="1" stroke-linecap="square" stroke-linejoin="bevel" transform="matrix(1.99494,0,0,1.99494,0.00159595,188.641)"
font-family="Ubuntu" font-size="11" font-weight="400" font-style="normal" 
>
</g>

<g fill="none" stroke="#000000" stroke-opacity="1" stroke-width="1" stroke-linecap="square" stroke-linejoin="bevel" transform="matrix(1.99494,0,0,1.99494,0.00159595,188.641)"
font-family="Ubuntu" font-size="11" font-weight="400" font-style="normal" 
>
</g>

<g fill="none" stroke="#000000" stroke-opacity="1" stroke-width="1" stroke-linecap="square" stroke-linejoin="round" transform="matrix(1.99494,0,0,1.99494,0.00159595,188.641)"
font-family="Ubuntu" font-size="11" font-weight="400" font-style="normal" 
>
<ellipse cx="123.49" cy="-22.56" rx="82.6924" ry="17.5"/>
</g>

<g fill="none" stroke="#000000" stroke-opacity="1" stroke-width="1" stroke-linecap="square" stroke-linejoin="bevel" transform="matrix(1.99494,0,0,1.99494,0.00159595,188.641)"
font-family="Ubuntu" font-size="11" font-weight="400" font-style="normal" 
>
</g>

<g fill="none" stroke="#000000" stroke-opacity="1" stroke-width="1" stroke-linecap="square" stroke-linejoin="bevel" transform="matrix(1.99494,0,0,1.99494,160.559,129.671)"
font-family="Ubuntu" font-size="11" font-weight="400" font-style="normal" 
>
</g>

<g fill="none" stroke="#000000" stroke-opacity="1" stroke-width="1" stroke-linecap="square" stroke-linejoin="bevel" transform="matrix(1.99494,0,0,1.99494,160.559,129.671)"
font-family="sans" font-size="11" font-weight="100" font-style="normal" 
>
</g>

<g fill="#000000" fill-opacity="1" stroke="#000000" stroke-opacity="1" stroke-width="1" stroke-linecap="square" stroke-linejoin="round" transform="matrix(1.99494,0,0,1.99494,160.559,129.671)"
font-family="sans" font-size="11" font-weight="100" font-style="normal" 
>
<path vector-effect="none" fill-rule="nonzero" d="M2.79688,2.98438 L3.70313,2.98438 L0.90625,12.0156 L0,12.0156 L2.79688,2.98438 M5.71875,3.28125 L5.71875,4.98438 L7.75,4.98438 L7.75,5.75 L5.71875,5.75 L5.71875,9.01563 C5.71875,9.50521 5.78646,9.82031 5.92188,9.96094 C6.05729,10.1016 6.32813,10.1719 6.73438,10.1719 L7.75,10.1719 L7.75,11 L6.73438,11 C5.97396,11 5.44792,10.8568 5.15625,10.5703 C4.86458,10.2839 4.71875,9.76563 4.71875,9.01563 L4.71875,5.75 L4,5.75 L4,4.98438 L4.71875,4.98438 L4.71875,3.28125 L5.71875,3.28125 M8.95313,8.625 L8.95313,4.98438 L9.9375,4.98438 L9.9375,8.59375 C9.9375,9.15625 10.0495,9.58073 10.2734,9.86719 C10.4974,10.1536 10.8281,10.2969 11.2656,10.2969 C11.8073,10.2969 12.2318,10.1276 12.5391,9.78906 C12.8464,9.45052 13,8.98438 13,8.39063 L13,4.98438 L13.9844,4.98438 L13.9844,11 L13,11 L13,10.0781 C12.7604,10.4427 12.4818,10.7135 12.1641,10.8906 C11.8464,11.0677 11.4792,11.1563 11.0625,11.1563 C10.375,11.1563 9.85156,10.9401 9.49219,10.5078 C9.13281,10.0755 8.95313,9.44792 8.95313,8.625 M19.5,5.90625 C19.3958,5.84375 19.2786,5.79688 19.1484,5.76563 C19.0182,5.73438 18.875,5.71875 18.7188,5.71875 C18.1563,5.71875 17.7266,5.90104 17.4297,6.26563 C17.1328,6.63021 16.9844,7.15104 16.9844,7.82813 L16.9844,11 L15.9844,11 L15.9844,4.98438 L16.9844,4.98438 L16.9844,5.92188 C17.1823,5.55729 17.4479,5.28646 17.7813,5.10938 C18.1146,4.93229 18.5208,4.84375 19,4.84375 C19.0729,4.84375 19.1484,4.84635 19.2266,4.85156 C19.3047,4.85677 19.3958,4.86979 19.5,4.89063 L19.5,5.90625 M21.5156,3.28125 L21.5156,4.98438 L23.5469,4.98438 L23.5469,5.75 L21.5156,5.75 L21.5156,9.01563 C21.5156,9.50521 21.5833,9.82031 21.7188,9.96094 C21.8542,10.1016 22.125,10.1719 22.5313,10.1719 L23.5469,10.1719 L23.5469,11 L22.5313,11 C21.7708,11 21.2448,10.8568 20.9531,10.5703 C20.6615,10.2839 20.5156,9.76563 20.5156,9.01563 L20.5156,5.75 L19.7969,5.75 L19.7969,4.98438 L20.5156,4.98438 L20.5156,3.28125 L21.5156,3.28125 M24.8438,2.64063 L25.8438,2.64063 L25.8438,11 L24.8438,11 L24.8438,2.64063 M33.0469,7.75 L33.0469,8.23438 L28.5,8.23438 C28.5417,8.91146 28.7448,9.42708 29.1094,9.78125 C29.474,10.1354 29.9844,10.3125 30.6406,10.3125 C31.026,10.3125 31.3958,10.2656 31.75,10.1719 C32.1042,10.0781 32.4583,9.94271 32.8125,9.76563 L32.8125,10.6875 C32.4583,10.8438 32.0938,10.9609 31.7188,11.0391 C31.3438,11.1172 30.9688,11.1563 30.5938,11.1563 C29.625,11.1563 28.862,10.8776 28.3047,10.3203 C27.7474,9.76302 27.4688,9.00521 27.4688,8.04688 C27.4688,7.06771 27.7344,6.28906 28.2656,5.71094 C28.7969,5.13281 29.5156,4.84375 30.4219,4.84375 C31.224,4.84375 31.862,5.10417 32.3359,5.625 C32.8099,6.14583 33.0469,6.85417 33.0469,7.75 M32.0469,7.45313 C32.0469,6.91146 31.8984,6.47917 31.6016,6.15625 C31.3047,5.83333 30.9115,5.67188 30.4219,5.67188 C29.8698,5.67188 29.4297,5.82813 29.1016,6.14063 C28.7734,6.45313 28.5833,6.89063 28.5313,7.45313 L32.0469,7.45313 M38.5,5.15625 L38.5,6.09375 C38.2188,5.94792 37.9271,5.84115 37.625,5.77344 C37.3229,5.70573 37.0104,5.67188 36.6875,5.67188 C36.1979,5.67188 35.8307,5.7474 35.5859,5.89844 C35.3411,6.04948 35.2188,6.27083 35.2188,6.5625 C35.2188,6.79167 35.3073,6.97135 35.4844,7.10156 C35.6615,7.23177 36.0156,7.35938 36.5469,7.48438 L36.875,7.5625 C37.5833,7.70833 38.0833,7.91927 38.375,8.19531 C38.6667,8.47135 38.8125,8.85417 38.8125,9.34375 C38.8125,9.89583 38.5938,10.3359 38.1563,10.6641 C37.7188,10.9922 37.1094,11.1563 36.3281,11.1563 C36.0052,11.1563 35.6693,11.125 35.3203,11.0625 C34.9714,11 34.6042,10.9063 34.2188,10.7813 L34.2188,9.76563 C34.5833,9.95313 34.9427,10.0938 35.2969,10.1875 C35.651,10.2813 36.0052,10.3281 36.3594,10.3281 C36.8177,10.3281 37.1719,10.2474 37.4219,10.0859 C37.6719,9.92448 37.7969,9.70313 37.7969,9.42188 C37.7969,9.15104 37.7083,8.94271 37.5313,8.79688 C37.3542,8.65104 36.9583,8.51563 36.3438,8.39063 L36,8.29688 C35.3854,8.17188 34.9427,7.97656 34.6719,7.71094 C34.401,7.44531 34.2656,7.07813 34.2656,6.60938 C34.2656,6.04688 34.4661,5.61198 34.8672,5.30469 C35.2682,4.9974 35.8385,4.84375 36.5781,4.84375 C36.9427,4.84375 37.2865,4.86979 37.6094,4.92188 C37.9323,4.97396 38.2292,5.05208 38.5,5.15625 M40.375,4.98438 L41.375,4.98438 L41.375,11 L40.375,11 L40.375,4.98438 M40.375,2.64063 L41.375,2.64063 L41.375,3.89063 L40.375,3.89063 L40.375,2.64063 M48.1094,6.14063 C48.3594,5.69271 48.6563,5.36458 49,5.15625 C49.3438,4.94792 49.75,4.84375 50.2188,4.84375 C50.8438,4.84375 51.3255,5.0625 51.6641,5.5 C52.0026,5.9375 52.1719,6.5625 52.1719,7.375 L52.1719,11 L51.1719,11 L51.1719,7.40625 C51.1719,6.82292 51.0703,6.39323 50.8672,6.11719 C50.6641,5.84115 50.3542,5.70313 49.9375,5.70313 C49.4271,5.70313 49.0234,5.8724 48.7266,6.21094 C48.4297,6.54948 48.2813,7.01042 48.2813,7.59375 L48.2813,11 L47.2813,11 L47.2813,7.40625 C47.2813,6.82292 47.1797,6.39323 46.9766,6.11719 C46.7734,5.84115 46.4583,5.70313 46.0313,5.70313 C45.5313,5.70313 45.1328,5.8724 44.8359,6.21094 C44.5391,6.54948 44.3906,7.01042 44.3906,7.59375 L44.3906,11 L43.3906,11 L43.3906,4.98438 L44.3906,4.98438 L44.3906,5.92188 C44.6094,5.54688 44.8776,5.27344 45.1953,5.10156 C45.513,4.92969 45.8854,4.84375 46.3125,4.84375 C46.75,4.84375 47.1224,4.95313 47.4297,5.17188 C47.737,5.39063 47.9635,5.71354 48.1094,6.14063 M58.7031,12.8281 L58.7031,13.5938 L52.9844,13.5938 L52.9844,12.8281 L58.7031,12.8281 M64.625,7.375 L64.625,11 L63.6406,11 L63.6406,7.40625 C63.6406,6.83333 63.5313,6.40625 63.3125,6.125 C63.0938,5.84375 62.7604,5.70313 62.3125,5.70313 C61.7813,5.70313 61.362,5.8724 61.0547,6.21094 C60.7474,6.54948 60.5938,7.01042 60.5938,7.59375 L60.5938,11 L59.5938,11 L59.5938,4.98438 L60.5938,4.98438 L60.5938,5.92188 C60.8229,5.55729 61.099,5.28646 61.4219,5.10938 C61.7448,4.93229 62.1146,4.84375 62.5313,4.84375 C63.2188,4.84375 63.7396,5.05729 64.0938,5.48438 C64.4479,5.91146 64.625,6.54167 64.625,7.375 M68.9375,5.67188 C68.4063,5.67188 67.987,5.88021 67.6797,6.29688 C67.3724,6.71354 67.2188,7.28125 67.2188,8 C67.2188,8.71875 67.3698,9.28385 67.6719,9.69531 C67.974,10.1068 68.3958,10.3125 68.9375,10.3125 C69.4583,10.3125 69.8724,10.1068 70.1797,9.69531 C70.487,9.28385 70.6406,8.71875 70.6406,8 C70.6406,7.28125 70.487,6.71354 70.1797,6.29688 C69.8724,5.88021 69.4583,5.67188 68.9375,5.67188 M68.9375,4.84375 C69.7917,4.84375 70.4635,5.1224 70.9531,5.67969 C71.4427,6.23698 71.6875,7.01042 71.6875,8 C71.6875,8.97917 71.4427,9.75 70.9531,10.3125 C70.4635,10.875 69.7917,11.1563 68.9375,11.1563 C68.0729,11.1563 67.3958,10.875 66.9063,10.3125 C66.4167,9.75 66.1719,8.97917 66.1719,8 C66.1719,7.01042 66.4167,6.23698 66.9063,5.67969 C67.3958,5.1224 68.0729,4.84375 68.9375,4.84375 M77.2813,5.89063 L77.2813,2.64063 L78.2656,2.64063 L78.2656,11 L77.2813,11 L77.2813,10.0938 C77.0729,10.4583 76.8099,10.7266 76.4922,10.8984 C76.1745,11.0703 75.7917,11.1563 75.3438,11.1563 C74.625,11.1563 74.0365,10.8672 73.5781,10.2891 C73.1198,9.71094 72.8906,8.94792 72.8906,8 C72.8906,7.05208 73.1198,6.28906 73.5781,5.71094 C74.0365,5.13281 74.625,4.84375 75.3438,4.84375 C75.7917,4.84375 76.1745,4.92969 76.4922,5.10156 C76.8099,5.27344 77.0729,5.53646 77.2813,5.89063 M73.9063,8 C73.9063,8.72917 74.0573,9.29948 74.3594,9.71094 C74.6615,10.1224 75.0729,10.3281 75.5938,10.3281 C76.1146,10.3281 76.526,10.1224 76.8281,9.71094 C77.1302,9.29948 77.2813,8.72917 77.2813,8 C77.2813,7.27083 77.1302,6.70052 76.8281,6.28906 C76.526,5.8776 76.1146,5.67188 75.5938,5.67188 C75.0729,5.67188 74.6615,5.8776 74.3594,6.28906 C74.0573,6.70052 73.9063,7.27083 73.9063,8 M85.4375,7.75 L85.4375,8.23438 L80.8906,8.23438 C80.9323,8.91146 81.1354,9.42708 81.5,9.78125 C81.8646,10.1354 82.375,10.3125 83.0313,10.3125 C83.4167,10.3125 83.7865,10.2656 84.1406,10.1719 C84.4948,10.0781 84.849,9.94271 85.2031,9.76563 L85.2031,10.6875 C84.849,10.8438 84.4844,10.9609 84.1094,11.0391 C83.7344,11.1172 83.3594,11.1563 82.9844,11.1563 C82.0156,11.1563 81.2526,10.8776 80.6953,10.3203 C80.138,9.76302 79.8594,9.00521 79.8594,8.04688 C79.8594,7.06771 80.125,6.28906 80.6563,5.71094 C81.1875,5.13281 81.9063,4.84375 82.8125,4.84375 C83.6146,4.84375 84.2526,5.10417 84.7266,5.625 C85.2005,6.14583 85.4375,6.85417 85.4375,7.75 M84.4375,7.45313 C84.4375,6.91146 84.2891,6.47917 83.9922,6.15625 C83.6953,5.83333 83.3021,5.67188 82.8125,5.67188 C82.2604,5.67188 81.8203,5.82813 81.4922,6.14063 C81.1641,6.45313 80.974,6.89063 80.9219,7.45313 L84.4375,7.45313"/>
</g>

<g fill="none" stroke="#000000" stroke-opacity="1" stroke-width="1" stroke-linecap="square" stroke-linejoin="bevel" transform="matrix(1.99494,0,0,1.99494,160.559,129.671)"
font-family="sans" font-size="11" font-weight="100" font-style="normal" 
>
</g>

<g fill="none" stroke="#000000" stroke-opacity="1" stroke-width="1" stroke-linecap="square" stroke-linejoin="bevel" transform="matrix(1.99494,0,0,1.99494,160.559,129.671)"
font-family="Ubuntu" font-size="11" font-weight="400" font-style="normal" 
>
</g>

<g fill="none" stroke="#000000" stroke-opacity="1" stroke-width="1" stroke-linecap="square" stroke-linejoin="bevel" transform="matrix(1.99494,0,0,1.99494,0.00159595,188.641)"
font-family="Ubuntu" font-size="11" font-weight="400" font-style="normal" 
>
</g>

<g fill="none" stroke="#000000" stroke-opacity="1" stroke-width="1" stroke-linecap="square" stroke-linejoin="bevel" transform="matrix(1.99494,0,0,1.99494,0.00159595,188.641)"
font-family="Ubuntu" font-size="11" font-weight="400" font-style="normal" 
>
</g>

<g fill="none" stroke="#000000" stroke-opacity="1" stroke-width="1" stroke-linecap="square" stroke-linejoin="bevel" transform="matrix(1.99494,0,0,1.99494,0.00159595,188.641)"
font-family="Ubuntu" font-size="11" font-weight="400" font-style="normal" 
>
</g>

<g fill="none" stroke="#000000" stroke-opacity="1" stroke-width="1" stroke-linecap="square" stroke-linejoin="round" transform="matrix(1.99494,0,0,1.99494,0.00159595,188.641)"
font-family="Ubuntu" font-size="11" font-weight="400" font-style="normal" 
>
<ellipse cx="465.77" cy="-22.56" rx="85.2916" ry="17.5"/>
</g>

<g fill="none" stroke="#000000" stroke-opacity="1" stroke-width="1" stroke-linecap="square" stroke-linejoin="bevel" transform="matrix(1.99494,0,0,1.99494,0.00159595,188.641)"
font-family="Ubuntu" font-size="11" font-weight="400" font-style="normal" 
>
</g>

<g fill="none" stroke="#000000" stroke-opacity="1" stroke-width="1" stroke-linecap="square" stroke-linejoin="bevel" transform="matrix(1.99494,0,0,1.99494,840.128,129.671)"
font-family="Ubuntu" font-size="11" font-weight="400" font-style="normal" 
>
</g>

<g fill="none" stroke="#000000" stroke-opacity="1" stroke-width="1" stroke-linecap="square" stroke-linejoin="bevel" transform="matrix(1.99494,0,0,1.99494,840.128,129.671)"
font-family="sans" font-size="11" font-weight="100" font-style="normal" 
>
</g>

<g fill="#000000" fill-opacity="1" stroke="#000000" stroke-opacity="1" stroke-width="1" stroke-linecap="square" stroke-linejoin="round" transform="matrix(1.99494,0,0,1.99494,840.128,129.671)"
font-family="sans" font-size="11" font-weight="100" font-style="normal" 
>
<path vector-effect="none" fill-rule="nonzero" d="M2.79688,2.98438 L3.70313,2.98438 L0.90625,12.0156 L0,12.0156 L2.79688,2.98438 M9.0625,5.21875 L9.0625,6.14063 C8.79167,5.98438 8.51563,5.86719 8.23438,5.78906 C7.95313,5.71094 7.66667,5.67188 7.375,5.67188 C6.73958,5.67188 6.24479,5.875 5.89063,6.28125 C5.53646,6.6875 5.35938,7.26042 5.35938,8 C5.35938,8.72917 5.53646,9.29688 5.89063,9.70313 C6.24479,10.1094 6.73958,10.3125 7.375,10.3125 C7.66667,10.3125 7.95313,10.276 8.23438,10.2031 C8.51563,10.1302 8.79167,10.0156 9.0625,9.85938 L9.0625,10.7656 C8.79167,10.901 8.50781,11 8.21094,11.0625 C7.91406,11.125 7.59896,11.1563 7.26563,11.1563 C6.35938,11.1563 5.64063,10.8724 5.10938,10.3047 C4.57813,9.73698 4.3125,8.96875 4.3125,8 C4.3125,7.02083 4.58073,6.25 5.11719,5.6875 C5.65365,5.125 6.39063,4.84375 7.32813,4.84375 C7.64063,4.84375 7.9401,4.875 8.22656,4.9375 C8.51302,5 8.79167,5.09375 9.0625,5.21875 M13.125,5.67188 C12.5938,5.67188 12.1745,5.88021 11.8672,6.29688 C11.5599,6.71354 11.4063,7.28125 11.4063,8 C11.4063,8.71875 11.5573,9.28385 11.8594,9.69531 C12.1615,10.1068 12.5833,10.3125 13.125,10.3125 C13.6458,10.3125 14.0599,10.1068 14.3672,9.69531 C14.6745,9.28385 14.8281,8.71875 14.8281,8 C14.8281,7.28125 14.6745,6.71354 14.3672,6.29688 C14.0599,5.88021 13.6458,5.67188 13.125,5.67188 M13.125,4.84375 C13.9792,4.84375 14.651,5.1224 15.1406,5.67969 C15.6302,6.23698 15.875,7.01042 15.875,8 C15.875,8.97917 15.6302,9.75 15.1406,10.3125 C14.651,10.875 13.9792,11.1563 13.125,11.1563 C12.2604,11.1563 11.5833,10.875 11.0938,10.3125 C10.6042,9.75 10.3594,8.97917 10.3594,8 C10.3594,7.01042 10.6042,6.23698 11.0938,5.67969 C11.5833,5.1224 12.2604,4.84375 13.125,4.84375 M22.5,7.375 L22.5,11 L21.5156,11 L21.5156,7.40625 C21.5156,6.83333 21.4063,6.40625 21.1875,6.125 C20.9688,5.84375 20.6354,5.70313 20.1875,5.70313 C19.6563,5.70313 19.237,5.8724 18.9297,6.21094 C18.6224,6.54948 18.4688,7.01042 18.4688,7.59375 L18.4688,11 L17.4688,11 L17.4688,4.98438 L18.4688,4.98438 L18.4688,5.92188 C18.6979,5.55729 18.974,5.28646 19.2969,5.10938 C19.6198,4.93229 19.9896,4.84375 20.4063,4.84375 C21.0938,4.84375 21.6146,5.05729 21.9688,5.48438 C22.3229,5.91146 22.5,6.54167 22.5,7.375 M25.4531,3.28125 L25.4531,4.98438 L27.4844,4.98438 L27.4844,5.75 L25.4531,5.75 L25.4531,9.01563 C25.4531,9.50521 25.5208,9.82031 25.6563,9.96094 C25.7917,10.1016 26.0625,10.1719 26.4688,10.1719 L27.4844,10.1719 L27.4844,11 L26.4688,11 C25.7083,11 25.1823,10.8568 24.8906,10.5703 C24.599,10.2839 24.4531,9.76563 24.4531,9.01563 L24.4531,5.75 L23.7344,5.75 L23.7344,4.98438 L24.4531,4.98438 L24.4531,3.28125 L25.4531,3.28125 M32.2656,5.90625 C32.1615,5.84375 32.0443,5.79688 31.9141,5.76563 C31.7839,5.73438 31.6406,5.71875 31.4844,5.71875 C30.9219,5.71875 30.4922,5.90104 30.1953,6.26563 C29.8984,6.63021 29.75,7.15104 29.75,7.82813 L29.75,11 L28.75,11 L28.75,4.98438 L29.75,4.98438 L29.75,5.92188 C29.9479,5.55729 30.2135,5.28646 30.5469,5.10938 C30.8802,4.93229 31.2865,4.84375 31.7656,4.84375 C31.8385,4.84375 31.9141,4.84635 31.9922,4.85156 C32.0703,4.85677 32.1615,4.86979 32.2656,4.89063 L32.2656,5.90625 M35.6406,5.67188 C35.1094,5.67188 34.6901,5.88021 34.3828,6.29688 C34.0755,6.71354 33.9219,7.28125 33.9219,8 C33.9219,8.71875 34.0729,9.28385 34.375,9.69531 C34.6771,10.1068 35.099,10.3125 35.6406,10.3125 C36.1615,10.3125 36.5755,10.1068 36.8828,9.69531 C37.1901,9.28385 37.3438,8.71875 37.3438,8 C37.3438,7.28125 37.1901,6.71354 36.8828,6.29688 C36.5755,5.88021 36.1615,5.67188 35.6406,5.67188 M35.6406,4.84375 C36.4948,4.84375 37.1667,5.1224 37.6563,5.67969 C38.1458,6.23698 38.3906,7.01042 38.3906,8 C38.3906,8.97917 38.1458,9.75 37.6563,10.3125 C37.1667,10.875 36.4948,11.1563 35.6406,11.1563 C34.776,11.1563 34.099,10.875 33.6094,10.3125 C33.1198,9.75 32.875,8.97917 32.875,8 C32.875,7.01042 33.1198,6.23698 33.6094,5.67969 C34.099,5.1224 34.776,4.84375 35.6406,4.84375 M40.0156,2.64063 L41.0156,2.64063 L41.0156,11 L40.0156,11 L40.0156,2.64063 M43.0625,2.64063 L44.0625,2.64063 L44.0625,11 L43.0625,11 L43.0625,2.64063 M51.2656,7.75 L51.2656,8.23438 L46.7188,8.23438 C46.7604,8.91146 46.9635,9.42708 47.3281,9.78125 C47.6927,10.1354 48.2031,10.3125 48.8594,10.3125 C49.2448,10.3125 49.6146,10.2656 49.9688,10.1719 C50.3229,10.0781 50.6771,9.94271 51.0313,9.76563 L51.0313,10.6875 C50.6771,10.8438 50.3125,10.9609 49.9375,11.0391 C49.5625,11.1172 49.1875,11.1563 48.8125,11.1563 C47.8438,11.1563 47.0807,10.8776 46.5234,10.3203 C45.9661,9.76302 45.6875,9.00521 45.6875,8.04688 C45.6875,7.06771 45.9531,6.28906 46.4844,5.71094 C47.0156,5.13281 47.7344,4.84375 48.6406,4.84375 C49.4427,4.84375 50.0807,5.10417 50.5547,5.625 C51.0286,6.14583 51.2656,6.85417 51.2656,7.75 M50.2656,7.45313 C50.2656,6.91146 50.1172,6.47917 49.8203,6.15625 C49.5234,5.83333 49.1302,5.67188 48.6406,5.67188 C48.0885,5.67188 47.6484,5.82813 47.3203,6.14063 C46.9922,6.45313 46.8021,6.89063 46.75,7.45313 L50.2656,7.45313 M56.3594,5.90625 C56.2552,5.84375 56.138,5.79688 56.0078,5.76563 C55.8776,5.73438 55.7344,5.71875 55.5781,5.71875 C55.0156,5.71875 54.5859,5.90104 54.2891,6.26563 C53.9922,6.63021 53.8438,7.15104 53.8438,7.82813 L53.8438,11 L52.8438,11 L52.8438,4.98438 L53.8438,4.98438 L53.8438,5.92188 C54.0417,5.55729 54.3073,5.28646 54.6406,5.10938 C54.974,4.93229 55.3802,4.84375 55.8594,4.84375 C55.9323,4.84375 56.0078,4.84635 56.0859,4.85156 C56.1641,4.85677 56.2552,4.86979 56.3594,4.89063 L56.3594,5.90625 M61.9688,12.8281 L61.9688,13.5938 L56.25,13.5938 L56.25,12.8281 L61.9688,12.8281 M67.8906,7.375 L67.8906,11 L66.9063,11 L66.9063,7.40625 C66.9063,6.83333 66.7969,6.40625 66.5781,6.125 C66.3594,5.84375 66.026,5.70313 65.5781,5.70313 C65.0469,5.70313 64.6276,5.8724 64.3203,6.21094 C64.013,6.54948 63.8594,7.01042 63.8594,7.59375 L63.8594,11 L62.8594,11 L62.8594,4.98438 L63.8594,4.98438 L63.8594,5.92188 C64.0885,5.55729 64.3646,5.28646 64.6875,5.10938 C65.0104,4.93229 65.3802,4.84375 65.7969,4.84375 C66.4844,4.84375 67.0052,5.05729 67.3594,5.48438 C67.7135,5.91146 67.8906,6.54167 67.8906,7.375 M72.2031,5.67188 C71.6719,5.67188 71.2526,5.88021 70.9453,6.29688 C70.638,6.71354 70.4844,7.28125 70.4844,8 C70.4844,8.71875 70.6354,9.28385 70.9375,9.69531 C71.2396,10.1068 71.6615,10.3125 72.2031,10.3125 C72.724,10.3125 73.138,10.1068 73.4453,9.69531 C73.7526,9.28385 73.9063,8.71875 73.9063,8 C73.9063,7.28125 73.7526,6.71354 73.4453,6.29688 C73.138,5.88021 72.724,5.67188 72.2031,5.67188 M72.2031,4.84375 C73.0573,4.84375 73.7292,5.1224 74.2188,5.67969 C74.7083,6.23698 74.9531,7.01042 74.9531,8 C74.9531,8.97917 74.7083,9.75 74.2188,10.3125 C73.7292,10.875 73.0573,11.1563 72.2031,11.1563 C71.3385,11.1563 70.6615,10.875 70.1719,10.3125 C69.6823,9.75 69.4375,8.97917 69.4375,8 C69.4375,7.01042 69.6823,6.23698 70.1719,5.67969 C70.6615,5.1224 71.3385,4.84375 72.2031,4.84375 M80.5469,5.89063 L80.5469,2.64063 L81.5313,2.64063 L81.5313,11 L80.5469,11 L80.5469,10.0938 C80.3385,10.4583 80.0755,10.7266 79.7578,10.8984 C79.4401,11.0703 79.0573,11.1563 78.6094,11.1563 C77.8906,11.1563 77.3021,10.8672 76.8438,10.2891 C76.3854,9.71094 76.1563,8.94792 76.1563,8 C76.1563,7.05208 76.3854,6.28906 76.8438,5.71094 C77.3021,5.13281 77.8906,4.84375 78.6094,4.84375 C79.0573,4.84375 79.4401,4.92969 79.7578,5.10156 C80.0755,5.27344 80.3385,5.53646 80.5469,5.89063 M77.1719,8 C77.1719,8.72917 77.3229,9.29948 77.625,9.71094 C77.9271,10.1224 78.3385,10.3281 78.8594,10.3281 C79.3802,10.3281 79.7917,10.1224 80.0938,9.71094 C80.3958,9.29948 80.5469,8.72917 80.5469,8 C80.5469,7.27083 80.3958,6.70052 80.0938,6.28906 C79.7917,5.8776 79.3802,5.67188 78.8594,5.67188 C78.3385,5.67188 77.9271,5.8776 77.625,6.28906 C77.3229,6.70052 77.1719,7.27083 77.1719,8 M88.7031,7.75 L88.7031,8.23438 L84.1563,8.23438 C84.1979,8.91146 84.401,9.42708 84.7656,9.78125 C85.1302,10.1354 85.6406,10.3125 86.2969,10.3125 C86.6823,10.3125 87.0521,10.2656 87.4063,10.1719 C87.7604,10.0781 88.1146,9.94271 88.4688,9.76563 L88.4688,10.6875 C88.1146,10.8438 87.75,10.9609 87.375,11.0391 C87,11.1172 86.625,11.1563 86.25,11.1563 C85.2813,11.1563 84.5182,10.8776 83.9609,10.3203 C83.4036,9.76302 83.125,9.00521 83.125,8.04688 C83.125,7.06771 83.3906,6.28906 83.9219,5.71094 C84.4531,5.13281 85.1719,4.84375 86.0781,4.84375 C86.8802,4.84375 87.5182,5.10417 87.9922,5.625 C88.4661,6.14583 88.7031,6.85417 88.7031,7.75 M87.7031,7.45313 C87.7031,6.91146 87.5547,6.47917 87.2578,6.15625 C86.9609,5.83333 86.5677,5.67188 86.0781,5.67188 C85.526,5.67188 85.0859,5.82813 84.7578,6.14063 C84.4297,6.45313 84.2396,6.89063 84.1875,7.45313 L87.7031,7.45313"/>
</g>

<g fill="none" stroke="#000000" stroke-opacity="1" stroke-width="1" stroke-linecap="square" stroke-linejoin="bevel" transform="matrix(1.99494,0,0,1.99494,840.128,129.671)"
font-family="sans" font-size="11" font-weight="100" font-style="normal" 
>
</g>

<g fill="none" stroke="#000000" stroke-opacity="1" stroke-width="1" stroke-linecap="square" stroke-linejoin="bevel" transform="matrix(1.99494,0,0,1.99494,840.128,129.671)"
font-family="Ubuntu" font-size="11" font-weight="400" font-style="normal" 
>
</g>

<g fill="none" stroke="#000000" stroke-opacity="1" stroke-width="1" stroke-linecap="square" stroke-linejoin="bevel" transform="matrix(1.99494,0,0,1.99494,0.00159595,188.641)"
font-family="Ubuntu" font-size="11" font-weight="400" font-style="normal" 
>
</g>

<g fill="none" stroke="#000000" stroke-opacity="1" stroke-width="1" stroke-linecap="square" stroke-linejoin="bevel" transform="matrix(1.99494,0,0,1.99494,0.00159595,188.641)"
font-family="Ubuntu" font-size="11" font-weight="400" font-style="normal" 
>
</g>

<g fill="none" stroke="#000000" stroke-opacity="1" stroke-width="1" stroke-linecap="square" stroke-linejoin="bevel" transform="matrix(1.99494,0,0,1.99494,0.00159595,188.641)"
font-family="Ubuntu" font-size="11" font-weight="400" font-style="normal" 
>
</g>

<g fill="none" stroke="#000000" stroke-opacity="1" stroke-width="1" stroke-linecap="square" stroke-linejoin="round" transform="matrix(1.99494,0,0,1.99494,0.00159595,188.641)"
font-family="Ubuntu" font-size="11" font-weight="400" font-style="normal" 
>
<ellipse cx="123.49" cy="-76.56" rx="122.991" ry="17.5"/>
</g>

<g fill="none" stroke="#000000" stroke-opacity="1" stroke-width="1" stroke-linecap="square" stroke-linejoin="bevel" transform="matrix(1.99494,0,0,1.99494,0.00159595,188.641)"
font-family="Ubuntu" font-size="11" font-weight="400" font-style="normal" 
>
</g>

<g fill="none" stroke="#000000" stroke-opacity="1" stroke-width="1" stroke-linecap="square" stroke-linejoin="bevel" transform="matrix(1.99494,0,0,1.99494,111.792,21.9443)"
font-family="Ubuntu" font-size="11" font-weight="400" font-style="normal" 
>
</g>

<g fill="none" stroke="#000000" stroke-opacity="1" stroke-width="1" stroke-linecap="square" stroke-linejoin="bevel" transform="matrix(1.99494,0,0,1.99494,111.792,21.9443)"
font-family="sans" font-size="11" font-weight="100" font-style="normal" 
>
</g>

<g fill="#000000" fill-opacity="1" stroke="#000000" stroke-opacity="1" stroke-width="1" stroke-linecap="square" stroke-linejoin="round" transform="matrix(1.99494,0,0,1.99494,111.792,21.9443)"
font-family="sans" font-size="11" font-weight="100" font-style="normal" 
>
<path vector-effect="none" fill-rule="nonzero" d="M2.79688,2.98438 L3.70313,2.98438 L0.90625,12.0156 L0,12.0156 L2.79688,2.98438 M9.73438,7.375 L9.73438,11 L8.75,11 L8.75,7.40625 C8.75,6.83333 8.64063,6.40625 8.42188,6.125 C8.20313,5.84375 7.86979,5.70313 7.42188,5.70313 C6.89063,5.70313 6.47135,5.8724 6.16406,6.21094 C5.85677,6.54948 5.70313,7.01042 5.70313,7.59375 L5.70313,11 L4.70313,11 L4.70313,4.98438 L5.70313,4.98438 L5.70313,5.92188 C5.93229,5.55729 6.20833,5.28646 6.53125,5.10938 C6.85417,4.93229 7.22396,4.84375 7.64063,4.84375 C8.32813,4.84375 8.84896,5.05729 9.20313,5.48438 C9.55729,5.91146 9.73438,6.54167 9.73438,7.375 M14.4375,7.96875 C13.6458,7.96875 13.0964,8.0625 12.7891,8.25 C12.4818,8.4375 12.3281,8.75 12.3281,9.1875 C12.3281,9.53125 12.4427,9.80729 12.6719,10.0156 C12.901,10.224 13.2135,10.3281 13.6094,10.3281 C14.1615,10.3281 14.6016,10.1328 14.9297,9.74219 C15.2578,9.35156 15.4219,8.83854 15.4219,8.20313 L15.4219,7.96875 L14.4375,7.96875 M16.4063,7.5625 L16.4063,11 L15.4219,11 L15.4219,10.0938 C15.2031,10.4583 14.9245,10.7266 14.5859,10.8984 C14.2474,11.0703 13.8333,11.1563 13.3438,11.1563 C12.7292,11.1563 12.2396,10.9844 11.875,10.6406 C11.5104,10.2969 11.3281,9.83333 11.3281,9.25 C11.3281,8.57292 11.5547,8.0625 12.0078,7.71875 C12.4609,7.375 13.1406,7.20313 14.0469,7.20313 L15.4219,7.20313 L15.4219,7.10938 C15.4219,6.65104 15.2734,6.29688 14.9766,6.04688 C14.6797,5.79688 14.2604,5.67188 13.7188,5.67188 C13.375,5.67188 13.0391,5.71354 12.7109,5.79688 C12.3828,5.88021 12.0677,6.00521 11.7656,6.17188 L11.7656,5.26563 C12.1302,5.11979 12.4844,5.01302 12.8281,4.94531 C13.1719,4.8776 13.5,4.84375 13.8125,4.84375 C14.6875,4.84375 15.3385,5.06771 15.7656,5.51563 C16.1927,5.96354 16.4063,6.64583 16.4063,7.5625 M17.7344,4.98438 L18.7813,4.98438 L20.6563,10.0313 L22.5469,4.98438 L23.5938,4.98438 L21.3281,11 L19.9844,11 L17.7344,4.98438 M24.9375,4.98438 L25.9375,4.98438 L25.9375,11 L24.9375,11 L24.9375,4.98438 M24.9375,2.64063 L25.9375,2.64063 L25.9375,3.89063 L24.9375,3.89063 L24.9375,2.64063 M31.9531,7.92188 C31.9531,7.20313 31.8047,6.64844 31.5078,6.25781 C31.2109,5.86719 30.7969,5.67188 30.2656,5.67188 C29.7344,5.67188 29.3203,5.86719 29.0234,6.25781 C28.7266,6.64844 28.5781,7.20313 28.5781,7.92188 C28.5781,8.63021 28.7266,9.18229 29.0234,9.57813 C29.3203,9.97396 29.7344,10.1719 30.2656,10.1719 C30.7969,10.1719 31.2109,9.97396 31.5078,9.57813 C31.8047,9.18229 31.9531,8.63021 31.9531,7.92188 M32.9375,10.25 C32.9375,11.2813 32.7109,12.0443 32.2578,12.5391 C31.8047,13.0339 31.1094,13.2813 30.1719,13.2813 C29.8177,13.2813 29.487,13.2552 29.1797,13.2031 C28.8724,13.151 28.5729,13.0729 28.2813,12.9688 L28.2813,12.0156 C28.5729,12.1719 28.8594,12.2865 29.1406,12.3594 C29.4219,12.4323 29.7135,12.4688 30.0156,12.4688 C30.6615,12.4688 31.1458,12.2995 31.4688,11.9609 C31.7917,11.6224 31.9531,11.1146 31.9531,10.4375 L31.9531,9.9375 C31.7448,10.2917 31.4818,10.5573 31.1641,10.7344 C30.8464,10.9115 30.4635,11 30.0156,11 C29.276,11 28.6823,10.7188 28.2344,10.1563 C27.7865,9.59375 27.5625,8.84896 27.5625,7.92188 C27.5625,6.99479 27.7865,6.25 28.2344,5.6875 C28.6823,5.125 29.276,4.84375 30.0156,4.84375 C30.4635,4.84375 30.8464,4.92969 31.1641,5.10156 C31.4818,5.27344 31.7448,5.53646 31.9531,5.89063 L31.9531,4.98438 L32.9375,4.98438 L32.9375,10.25 M37.6875,7.96875 C36.8958,7.96875 36.3464,8.0625 36.0391,8.25 C35.7318,8.4375 35.5781,8.75 35.5781,9.1875 C35.5781,9.53125 35.6927,9.80729 35.9219,10.0156 C36.151,10.224 36.4635,10.3281 36.8594,10.3281 C37.4115,10.3281 37.8516,10.1328 38.1797,9.74219 C38.5078,9.35156 38.6719,8.83854 38.6719,8.20313 L38.6719,7.96875 L37.6875,7.96875 M39.6563,7.5625 L39.6563,11 L38.6719,11 L38.6719,10.0938 C38.4531,10.4583 38.1745,10.7266 37.8359,10.8984 C37.4974,11.0703 37.0833,11.1563 36.5938,11.1563 C35.9792,11.1563 35.4896,10.9844 35.125,10.6406 C34.7604,10.2969 34.5781,9.83333 34.5781,9.25 C34.5781,8.57292 34.8047,8.0625 35.2578,7.71875 C35.7109,7.375 36.3906,7.20313 37.2969,7.20313 L38.6719,7.20313 L38.6719,7.10938 C38.6719,6.65104 38.5234,6.29688 38.2266,6.04688 C37.9297,5.79688 37.5104,5.67188 36.9688,5.67188 C36.625,5.67188 36.2891,5.71354 35.9609,5.79688 C35.6328,5.88021 35.3177,6.00521 35.0156,6.17188 L35.0156,5.26563 C35.3802,5.11979 35.7344,5.01302 36.0781,4.94531 C36.4219,4.8776 36.75,4.84375 37.0625,4.84375 C37.9375,4.84375 38.5885,5.06771 39.0156,5.51563 C39.4427,5.96354 39.6563,6.64583 39.6563,7.5625 M42.6719,3.28125 L42.6719,4.98438 L44.7031,4.98438 L44.7031,5.75 L42.6719,5.75 L42.6719,9.01563 C42.6719,9.50521 42.7396,9.82031 42.875,9.96094 C43.0104,10.1016 43.2813,10.1719 43.6875,10.1719 L44.7031,10.1719 L44.7031,11 L43.6875,11 C42.9271,11 42.401,10.8568 42.1094,10.5703 C41.8177,10.2839 41.6719,9.76563 41.6719,9.01563 L41.6719,5.75 L40.9531,5.75 L40.9531,4.98438 L41.6719,4.98438 L41.6719,3.28125 L42.6719,3.28125 M46,4.98438 L47,4.98438 L47,11 L46,11 L46,4.98438 M46,2.64063 L47,2.64063 L47,3.89063 L46,3.89063 L46,2.64063 M51.3906,5.67188 C50.8594,5.67188 50.4401,5.88021 50.1328,6.29688 C49.8255,6.71354 49.6719,7.28125 49.6719,8 C49.6719,8.71875 49.8229,9.28385 50.125,9.69531 C50.4271,10.1068 50.849,10.3125 51.3906,10.3125 C51.9115,10.3125 52.3255,10.1068 52.6328,9.69531 C52.9401,9.28385 53.0938,8.71875 53.0938,8 C53.0938,7.28125 52.9401,6.71354 52.6328,6.29688 C52.3255,5.88021 51.9115,5.67188 51.3906,5.67188 M51.3906,4.84375 C52.2448,4.84375 52.9167,5.1224 53.4063,5.67969 C53.8958,6.23698 54.1406,7.01042 54.1406,8 C54.1406,8.97917 53.8958,9.75 53.4063,10.3125 C52.9167,10.875 52.2448,11.1563 51.3906,11.1563 C50.526,11.1563 49.849,10.875 49.3594,10.3125 C48.8698,9.75 48.625,8.97917 48.625,8 C48.625,7.01042 48.8698,6.23698 49.3594,5.67969 C49.849,5.1224 50.526,4.84375 51.3906,4.84375 M60.7656,7.375 L60.7656,11 L59.7813,11 L59.7813,7.40625 C59.7813,6.83333 59.6719,6.40625 59.4531,6.125 C59.2344,5.84375 58.901,5.70313 58.4531,5.70313 C57.9219,5.70313 57.5026,5.8724 57.1953,6.21094 C56.888,6.54948 56.7344,7.01042 56.7344,7.59375 L56.7344,11 L55.7344,11 L55.7344,4.98438 L56.7344,4.98438 L56.7344,5.92188 C56.9635,5.55729 57.2396,5.28646 57.5625,5.10938 C57.8854,4.93229 58.2552,4.84375 58.6719,4.84375 C59.3594,4.84375 59.8802,5.05729 60.2344,5.48438 C60.5885,5.91146 60.7656,6.54167 60.7656,7.375 M67.3125,12.8281 L67.3125,13.5938 L61.5938,13.5938 L61.5938,12.8281 L67.3125,12.8281 M72.0781,5.15625 L72.0781,6.09375 C71.7969,5.94792 71.5052,5.84115 71.2031,5.77344 C70.901,5.70573 70.5885,5.67188 70.2656,5.67188 C69.776,5.67188 69.4089,5.7474 69.1641,5.89844 C68.9193,6.04948 68.7969,6.27083 68.7969,6.5625 C68.7969,6.79167 68.8854,6.97135 69.0625,7.10156 C69.2396,7.23177 69.5938,7.35938 70.125,7.48438 L70.4531,7.5625 C71.1615,7.70833 71.6615,7.91927 71.9531,8.19531 C72.2448,8.47135 72.3906,8.85417 72.3906,9.34375 C72.3906,9.89583 72.1719,10.3359 71.7344,10.6641 C71.2969,10.9922 70.6875,11.1563 69.9063,11.1563 C69.5833,11.1563 69.2474,11.125 68.8984,11.0625 C68.5495,11 68.1823,10.9063 67.7969,10.7813 L67.7969,9.76563 C68.1615,9.95313 68.5208,10.0938 68.875,10.1875 C69.2292,10.2813 69.5833,10.3281 69.9375,10.3281 C70.3958,10.3281 70.75,10.2474 71,10.0859 C71.25,9.92448 71.375,9.70313 71.375,9.42188 C71.375,9.15104 71.2865,8.94271 71.1094,8.79688 C70.9323,8.65104 70.5365,8.51563 69.9219,8.39063 L69.5781,8.29688 C68.9635,8.17188 68.5208,7.97656 68.25,7.71094 C67.9792,7.44531 67.8438,7.07813 67.8438,6.60938 C67.8438,6.04688 68.0443,5.61198 68.4453,5.30469 C68.8464,4.9974 69.4167,4.84375 70.1563,4.84375 C70.5208,4.84375 70.8646,4.86979 71.1875,4.92188 C71.5104,4.97396 71.8073,5.05208 72.0781,5.15625 M79.1094,7.75 L79.1094,8.23438 L74.5625,8.23438 C74.6042,8.91146 74.8073,9.42708 75.1719,9.78125 C75.5365,10.1354 76.0469,10.3125 76.7031,10.3125 C77.0885,10.3125 77.4583,10.2656 77.8125,10.1719 C78.1667,10.0781 78.5208,9.94271 78.875,9.76563 L78.875,10.6875 C78.5208,10.8438 78.1563,10.9609 77.7813,11.0391 C77.4063,11.1172 77.0313,11.1563 76.6563,11.1563 C75.6875,11.1563 74.9245,10.8776 74.3672,10.3203 C73.8099,9.76302 73.5313,9.00521 73.5313,8.04688 C73.5313,7.06771 73.7969,6.28906 74.3281,5.71094 C74.8594,5.13281 75.5781,4.84375 76.4844,4.84375 C77.2865,4.84375 77.9245,5.10417 78.3984,5.625 C78.8724,6.14583 79.1094,6.85417 79.1094,7.75 M78.1094,7.45313 C78.1094,6.91146 77.9609,6.47917 77.6641,6.15625 C77.3672,5.83333 76.974,5.67188 76.4844,5.67188 C75.9323,5.67188 75.4922,5.82813 75.1641,6.14063 C74.8359,6.45313 74.6458,6.89063 74.5938,7.45313 L78.1094,7.45313 M84.2031,5.90625 C84.099,5.84375 83.9818,5.79688 83.8516,5.76563 C83.7214,5.73438 83.5781,5.71875 83.4219,5.71875 C82.8594,5.71875 82.4297,5.90104 82.1328,6.26563 C81.8359,6.63021 81.6875,7.15104 81.6875,7.82813 L81.6875,11 L80.6875,11 L80.6875,4.98438 L81.6875,4.98438 L81.6875,5.92188 C81.8854,5.55729 82.151,5.28646 82.4844,5.10938 C82.8177,4.93229 83.224,4.84375 83.7031,4.84375 C83.776,4.84375 83.8516,4.84635 83.9297,4.85156 C84.0078,4.85677 84.099,4.86979 84.2031,4.89063 L84.2031,5.90625 M84.5313,4.98438 L85.5781,4.98438 L87.4531,10.0313 L89.3438,4.98438 L90.3906,4.98438 L88.125,11 L86.7813,11 L84.5313,4.98438 M96.8906,7.75 L96.8906,8.23438 L92.3438,8.23438 C92.3854,8.91146 92.5885,9.42708 92.9531,9.78125 C93.3177,10.1354 93.8281,10.3125 94.4844,10.3125 C94.8698,10.3125 95.2396,10.2656 95.5938,10.1719 C95.9479,10.0781 96.3021,9.94271 96.6563,9.76563 L96.6563,10.6875 C96.3021,10.8438 95.9375,10.9609 95.5625,11.0391 C95.1875,11.1172 94.8125,11.1563 94.4375,11.1563 C93.4688,11.1563 92.7057,10.8776 92.1484,10.3203 C91.5911,9.76302 91.3125,9.00521 91.3125,8.04688 C91.3125,7.06771 91.5781,6.28906 92.1094,5.71094 C92.6406,5.13281 93.3594,4.84375 94.2656,4.84375 C95.0677,4.84375 95.7057,5.10417 96.1797,5.625 C96.6536,6.14583 96.8906,6.85417 96.8906,7.75 M95.8906,7.45313 C95.8906,6.91146 95.7422,6.47917 95.4453,6.15625 C95.1484,5.83333 94.7552,5.67188 94.2656,5.67188 C93.7135,5.67188 93.2734,5.82813 92.9453,6.14063 C92.6172,6.45313 92.4271,6.89063 92.375,7.45313 L95.8906,7.45313 M101.984,5.90625 C101.88,5.84375 101.763,5.79688 101.633,5.76563 C101.503,5.73438 101.359,5.71875 101.203,5.71875 C100.641,5.71875 100.211,5.90104 99.9141,6.26563 C99.6172,6.63021 99.4688,7.15104 99.4688,7.82813 L99.4688,11 L98.4688,11 L98.4688,4.98438 L99.4688,4.98438 L99.4688,5.92188 C99.6667,5.55729 99.9323,5.28646 100.266,5.10938 C100.599,4.93229 101.005,4.84375 101.484,4.84375 C101.557,4.84375 101.633,4.84635 101.711,4.85156 C101.789,4.85677 101.88,4.86979 101.984,4.89063 L101.984,5.90625 M107.594,12.8281 L107.594,13.5938 L101.875,13.5938 L101.875,12.8281 L107.594,12.8281 M113.516,7.375 L113.516,11 L112.531,11 L112.531,7.40625 C112.531,6.83333 112.422,6.40625 112.203,6.125 C111.984,5.84375 111.651,5.70313 111.203,5.70313 C110.672,5.70313 110.253,5.8724 109.945,6.21094 C109.638,6.54948 109.484,7.01042 109.484,7.59375 L109.484,11 L108.484,11 L108.484,4.98438 L109.484,4.98438 L109.484,5.92188 C109.714,5.55729 109.99,5.28646 110.313,5.10938 C110.635,4.93229 111.005,4.84375 111.422,4.84375 C112.109,4.84375 112.63,5.05729 112.984,5.48438 C113.339,5.91146 113.516,6.54167 113.516,7.375 M117.828,5.67188 C117.297,5.67188 116.878,5.88021 116.57,6.29688 C116.263,6.71354 116.109,7.28125 116.109,8 C116.109,8.71875 116.26,9.28385 116.563,9.69531 C116.865,10.1068 117.286,10.3125 117.828,10.3125 C118.349,10.3125 118.763,10.1068 119.07,9.69531 C119.378,9.28385 119.531,8.71875 119.531,8 C119.531,7.28125 119.378,6.71354 119.07,6.29688 C118.763,5.88021 118.349,5.67188 117.828,5.67188 M117.828,4.84375 C118.682,4.84375 119.354,5.1224 119.844,5.67969 C120.333,6.23698 120.578,7.01042 120.578,8 C120.578,8.97917 120.333,9.75 119.844,10.3125 C119.354,10.875 118.682,11.1563 117.828,11.1563 C116.964,11.1563 116.286,10.875 115.797,10.3125 C115.307,9.75 115.063,8.97917 115.063,8 C115.063,7.01042 115.307,6.23698 115.797,5.67969 C116.286,5.1224 116.964,4.84375 117.828,4.84375 M126.172,5.89063 L126.172,2.64063 L127.156,2.64063 L127.156,11 L126.172,11 L126.172,10.0938 C125.964,10.4583 125.701,10.7266 125.383,10.8984 C125.065,11.0703 124.682,11.1563 124.234,11.1563 C123.516,11.1563 122.927,10.8672 122.469,10.2891 C122.01,9.71094 121.781,8.94792 121.781,8 C121.781,7.05208 122.01,6.28906 122.469,5.71094 C122.927,5.13281 123.516,4.84375 124.234,4.84375 C124.682,4.84375 125.065,4.92969 125.383,5.10156 C125.701,5.27344 125.964,5.53646 126.172,5.89063 M122.797,8 C122.797,8.72917 122.948,9.29948 123.25,9.71094 C123.552,10.1224 123.964,10.3281 124.484,10.3281 C125.005,10.3281 125.417,10.1224 125.719,9.71094 C126.021,9.29948 126.172,8.72917 126.172,8 C126.172,7.27083 126.021,6.70052 125.719,6.28906 C125.417,5.8776 125.005,5.67188 124.484,5.67188 C123.964,5.67188 123.552,5.8776 123.25,6.28906 C122.948,6.70052 122.797,7.27083 122.797,8 M134.328,7.75 L134.328,8.23438 L129.781,8.23438 C129.823,8.91146 130.026,9.42708 130.391,9.78125 C130.755,10.1354 131.266,10.3125 131.922,10.3125 C132.307,10.3125 132.677,10.2656 133.031,10.1719 C133.385,10.0781 133.74,9.94271 134.094,9.76563 L134.094,10.6875 C133.74,10.8438 133.375,10.9609 133,11.0391 C132.625,11.1172 132.25,11.1563 131.875,11.1563 C130.906,11.1563 130.143,10.8776 129.586,10.3203 C129.029,9.76302 128.75,9.00521 128.75,8.04688 C128.75,7.06771 129.016,6.28906 129.547,5.71094 C130.078,5.13281 130.797,4.84375 131.703,4.84375 C132.505,4.84375 133.143,5.10417 133.617,5.625 C134.091,6.14583 134.328,6.85417 134.328,7.75 M133.328,7.45313 C133.328,6.91146 133.18,6.47917 132.883,6.15625 C132.586,5.83333 132.193,5.67188 131.703,5.67188 C131.151,5.67188 130.711,5.82813 130.383,6.14063 C130.055,6.45313 129.865,6.89063 129.813,7.45313 L133.328,7.45313"/>
</g>

<g fill="none" stroke="#000000" stroke-opacity="1" stroke-width="1" stroke-linecap="square" stroke-linejoin="bevel" transform="matrix(1.99494,0,0,1.99494,111.792,21.9443)"
font-family="sans" font-size="11" font-weight="100" font-style="normal" 
>
</g>

<g fill="none" stroke="#000000" stroke-opacity="1" stroke-width="1" stroke-linecap="square" stroke-linejoin="bevel" transform="matrix(1.99494,0,0,1.99494,111.792,21.9443)"
font-family="Ubuntu" font-size="11" font-weight="400" font-style="normal" 
>
</g>

<g fill="none" stroke="#000000" stroke-opacity="1" stroke-width="1" stroke-linecap="square" stroke-linejoin="bevel" transform="matrix(1.99494,0,0,1.99494,0.00159595,188.641)"
font-family="Ubuntu" font-size="11" font-weight="400" font-style="normal" 
>
</g>

<g fill="none" stroke="#000000" stroke-opacity="1" stroke-width="1" stroke-linecap="square" stroke-linejoin="bevel" transform="matrix(1.99494,0,0,1.99494,0.00159595,188.641)"
font-family="Ubuntu" font-size="11" font-weight="400" font-style="normal" 
>
</g>

<g fill="none" stroke="#000000" stroke-opacity="1" stroke-width="1" stroke-linecap="square" stroke-linejoin="bevel" transform="matrix(1.99494,0,0,1.99494,0.00159595,188.641)"
font-family="Ubuntu" font-size="11" font-weight="400" font-style="normal" 
>
</g>

<g fill="none" stroke="#000000" stroke-opacity="1" stroke-width="1" stroke-linecap="square" stroke-linejoin="round" transform="matrix(1.99494,0,0,1.99494,0.00159595,188.641)"
font-family="Ubuntu" font-size="11" font-weight="400" font-style="normal" 
>
<path vector-effect="none" fill-rule="evenodd" d="M206.86,-22.56 C256,-22.56 318.6,-22.56 369.82,-22.56 "/>
</g>

<g fill="none" stroke="#000000" stroke-opacity="1" stroke-width="1" stroke-linecap="square" stroke-linejoin="bevel" transform="matrix(1.99494,0,0,1.99494,0.00159595,188.641)"
font-family="Ubuntu" font-size="11" font-weight="400" font-style="normal" 
>
</g>

<g fill="none" stroke="#000000" stroke-opacity="1" stroke-width="1" stroke-linecap="square" stroke-linejoin="bevel" transform="matrix(1.99494,0,0,1.99494,555.069,114.709)"
font-family="Ubuntu" font-size="11" font-weight="400" font-style="normal" 
>
</g>

<g fill="none" stroke="#000000" stroke-opacity="1" stroke-width="1" stroke-linecap="square" stroke-linejoin="bevel" transform="matrix(1.99494,0,0,1.99494,555.069,114.709)"
font-family="sans" font-size="11" font-weight="100" font-style="normal" 
>
</g>

<g fill="#000000" fill-opacity="1" stroke="#000000" stroke-opacity="1" stroke-width="1" stroke-linecap="square" stroke-linejoin="round" transform="matrix(1.99494,0,0,1.99494,555.069,114.709)"
font-family="sans" font-size="11" font-weight="100" font-style="normal" 
>
<path vector-effect="none" fill-rule="nonzero" d="M2.79688,2.98438 L3.70313,2.98438 L0.90625,12.0156 L0,12.0156 L2.79688,2.98438 M5.71875,3.28125 L5.71875,4.98438 L7.75,4.98438 L7.75,5.75 L5.71875,5.75 L5.71875,9.01563 C5.71875,9.50521 5.78646,9.82031 5.92188,9.96094 C6.05729,10.1016 6.32813,10.1719 6.73438,10.1719 L7.75,10.1719 L7.75,11 L6.73438,11 C5.97396,11 5.44792,10.8568 5.15625,10.5703 C4.86458,10.2839 4.71875,9.76563 4.71875,9.01563 L4.71875,5.75 L4,5.75 L4,4.98438 L4.71875,4.98438 L4.71875,3.28125 L5.71875,3.28125 M8.95313,8.625 L8.95313,4.98438 L9.9375,4.98438 L9.9375,8.59375 C9.9375,9.15625 10.0495,9.58073 10.2734,9.86719 C10.4974,10.1536 10.8281,10.2969 11.2656,10.2969 C11.8073,10.2969 12.2318,10.1276 12.5391,9.78906 C12.8464,9.45052 13,8.98438 13,8.39063 L13,4.98438 L13.9844,4.98438 L13.9844,11 L13,11 L13,10.0781 C12.7604,10.4427 12.4818,10.7135 12.1641,10.8906 C11.8464,11.0677 11.4792,11.1563 11.0625,11.1563 C10.375,11.1563 9.85156,10.9401 9.49219,10.5078 C9.13281,10.0755 8.95313,9.44792 8.95313,8.625 M19.5,5.90625 C19.3958,5.84375 19.2786,5.79688 19.1484,5.76563 C19.0182,5.73438 18.875,5.71875 18.7188,5.71875 C18.1563,5.71875 17.7266,5.90104 17.4297,6.26563 C17.1328,6.63021 16.9844,7.15104 16.9844,7.82813 L16.9844,11 L15.9844,11 L15.9844,4.98438 L16.9844,4.98438 L16.9844,5.92188 C17.1823,5.55729 17.4479,5.28646 17.7813,5.10938 C18.1146,4.93229 18.5208,4.84375 19,4.84375 C19.0729,4.84375 19.1484,4.84635 19.2266,4.85156 C19.3047,4.85677 19.3958,4.86979 19.5,4.89063 L19.5,5.90625 M21.5156,3.28125 L21.5156,4.98438 L23.5469,4.98438 L23.5469,5.75 L21.5156,5.75 L21.5156,9.01563 C21.5156,9.50521 21.5833,9.82031 21.7188,9.96094 C21.8542,10.1016 22.125,10.1719 22.5313,10.1719 L23.5469,10.1719 L23.5469,11 L22.5313,11 C21.7708,11 21.2448,10.8568 20.9531,10.5703 C20.6615,10.2839 20.5156,9.76563 20.5156,9.01563 L20.5156,5.75 L19.7969,5.75 L19.7969,4.98438 L20.5156,4.98438 L20.5156,3.28125 L21.5156,3.28125 M24.8438,2.64063 L25.8438,2.64063 L25.8438,11 L24.8438,11 L24.8438,2.64063 M33.0469,7.75 L33.0469,8.23438 L28.5,8.23438 C28.5417,8.91146 28.7448,9.42708 29.1094,9.78125 C29.474,10.1354 29.9844,10.3125 30.6406,10.3125 C31.026,10.3125 31.3958,10.2656 31.75,10.1719 C32.1042,10.0781 32.4583,9.94271 32.8125,9.76563 L32.8125,10.6875 C32.4583,10.8438 32.0938,10.9609 31.7188,11.0391 C31.3438,11.1172 30.9688,11.1563 30.5938,11.1563 C29.625,11.1563 28.862,10.8776 28.3047,10.3203 C27.7474,9.76302 27.4688,9.00521 27.4688,8.04688 C27.4688,7.06771 27.7344,6.28906 28.2656,5.71094 C28.7969,5.13281 29.5156,4.84375 30.4219,4.84375 C31.224,4.84375 31.862,5.10417 32.3359,5.625 C32.8099,6.14583 33.0469,6.85417 33.0469,7.75 M32.0469,7.45313 C32.0469,6.91146 31.8984,6.47917 31.6016,6.15625 C31.3047,5.83333 30.9115,5.67188 30.4219,5.67188 C29.8698,5.67188 29.4297,5.82813 29.1016,6.14063 C28.7734,6.45313 28.5833,6.89063 28.5313,7.45313 L32.0469,7.45313 M34.9844,10.0938 L36.7656,10.0938 L36.7656,3.96875 L34.8281,4.35938 L34.8281,3.375 L36.75,2.98438 L37.8438,2.98438 L37.8438,10.0938 L39.6094,10.0938 L39.6094,11 L34.9844,11 L34.9844,10.0938 M43.4063,2.98438 L44.3125,2.98438 L41.5156,12.0156 L40.6094,12.0156 L43.4063,2.98438 M46.3125,10.0938 L46.3125,13.2813 L45.3125,13.2813 L45.3125,4.98438 L46.3125,4.98438 L46.3125,5.89063 C46.5104,5.53646 46.7682,5.27344 47.0859,5.10156 C47.4036,4.92969 47.7865,4.84375 48.2344,4.84375 C48.9635,4.84375 49.5547,5.13281 50.0078,5.71094 C50.4609,6.28906 50.6875,7.05208 50.6875,8 C50.6875,8.94792 50.4609,9.71094 50.0078,10.2891 C49.5547,10.8672 48.9635,11.1563 48.2344,11.1563 C47.7865,11.1563 47.4036,11.0703 47.0859,10.8984 C46.7682,10.7266 46.5104,10.4583 46.3125,10.0938 M49.6719,8 C49.6719,7.27083 49.5208,6.70052 49.2188,6.28906 C48.9167,5.8776 48.5052,5.67188 47.9844,5.67188 C47.4635,5.67188 47.0547,5.8776 46.7578,6.28906 C46.4609,6.70052 46.3125,7.27083 46.3125,8 C46.3125,8.72917 46.4609,9.29948 46.7578,9.71094 C47.0547,10.1224 47.4635,10.3281 47.9844,10.3281 C48.5052,10.3281 48.9167,10.1224 49.2188,9.71094 C49.5208,9.29948 49.6719,8.72917 49.6719,8 M54.6563,5.67188 C54.125,5.67188 53.7057,5.88021 53.3984,6.29688 C53.0911,6.71354 52.9375,7.28125 52.9375,8 C52.9375,8.71875 53.0885,9.28385 53.3906,9.69531 C53.6927,10.1068 54.1146,10.3125 54.6563,10.3125 C55.1771,10.3125 55.5911,10.1068 55.8984,9.69531 C56.2057,9.28385 56.3594,8.71875 56.3594,8 C56.3594,7.28125 56.2057,6.71354 55.8984,6.29688 C55.5911,5.88021 55.1771,5.67188 54.6563,5.67188 M54.6563,4.84375 C55.5104,4.84375 56.1823,5.1224 56.6719,5.67969 C57.1615,6.23698 57.4063,7.01042 57.4063,8 C57.4063,8.97917 57.1615,9.75 56.6719,10.3125 C56.1823,10.875 55.5104,11.1563 54.6563,11.1563 C53.7917,11.1563 53.1146,10.875 52.625,10.3125 C52.1354,9.75 51.8906,8.97917 51.8906,8 C51.8906,7.01042 52.1354,6.23698 52.625,5.67969 C53.1146,5.1224 53.7917,4.84375 54.6563,4.84375 M62.875,5.15625 L62.875,6.09375 C62.5938,5.94792 62.3021,5.84115 62,5.77344 C61.6979,5.70573 61.3854,5.67188 61.0625,5.67188 C60.5729,5.67188 60.2057,5.7474 59.9609,5.89844 C59.7161,6.04948 59.5938,6.27083 59.5938,6.5625 C59.5938,6.79167 59.6823,6.97135 59.8594,7.10156 C60.0365,7.23177 60.3906,7.35938 60.9219,7.48438 L61.25,7.5625 C61.9583,7.70833 62.4583,7.91927 62.75,8.19531 C63.0417,8.47135 63.1875,8.85417 63.1875,9.34375 C63.1875,9.89583 62.9688,10.3359 62.5313,10.6641 C62.0938,10.9922 61.4844,11.1563 60.7031,11.1563 C60.3802,11.1563 60.0443,11.125 59.6953,11.0625 C59.3464,11 58.9792,10.9063 58.5938,10.7813 L58.5938,9.76563 C58.9583,9.95313 59.3177,10.0938 59.6719,10.1875 C60.026,10.2813 60.3802,10.3281 60.7344,10.3281 C61.1927,10.3281 61.5469,10.2474 61.7969,10.0859 C62.0469,9.92448 62.1719,9.70313 62.1719,9.42188 C62.1719,9.15104 62.0833,8.94271 61.9063,8.79688 C61.7292,8.65104 61.3333,8.51563 60.7188,8.39063 L60.375,8.29688 C59.7604,8.17188 59.3177,7.97656 59.0469,7.71094 C58.776,7.44531 58.6406,7.07813 58.6406,6.60938 C58.6406,6.04688 58.8411,5.61198 59.2422,5.30469 C59.6432,4.9974 60.2135,4.84375 60.9531,4.84375 C61.3177,4.84375 61.6615,4.86979 61.9844,4.92188 C62.3073,4.97396 62.6042,5.05208 62.875,5.15625 M69.9063,7.75 L69.9063,8.23438 L65.3594,8.23438 C65.401,8.91146 65.6042,9.42708 65.9688,9.78125 C66.3333,10.1354 66.8438,10.3125 67.5,10.3125 C67.8854,10.3125 68.2552,10.2656 68.6094,10.1719 C68.9635,10.0781 69.3177,9.94271 69.6719,9.76563 L69.6719,10.6875 C69.3177,10.8438 68.9531,10.9609 68.5781,11.0391 C68.2031,11.1172 67.8281,11.1563 67.4531,11.1563 C66.4844,11.1563 65.7214,10.8776 65.1641,10.3203 C64.6068,9.76302 64.3281,9.00521 64.3281,8.04688 C64.3281,7.06771 64.5938,6.28906 65.125,5.71094 C65.6563,5.13281 66.375,4.84375 67.2813,4.84375 C68.0833,4.84375 68.7214,5.10417 69.1953,5.625 C69.6693,6.14583 69.9063,6.85417 69.9063,7.75 M68.9063,7.45313 C68.9063,6.91146 68.7578,6.47917 68.4609,6.15625 C68.1641,5.83333 67.7708,5.67188 67.2813,5.67188 C66.7292,5.67188 66.2891,5.82813 65.9609,6.14063 C65.6328,6.45313 65.4427,6.89063 65.3906,7.45313 L68.9063,7.45313"/>
</g>

<g fill="none" stroke="#000000" stroke-opacity="1" stroke-width="1" stroke-linecap="square" stroke-linejoin="bevel" transform="matrix(1.99494,0,0,1.99494,555.069,114.709)"
font-family="sans" font-size="11" font-weight="100" font-style="normal" 
>
</g>

<g fill="none" stroke="#000000" stroke-opacity="1" stroke-width="1" stroke-linecap="square" stroke-linejoin="bevel" transform="matrix(1.99494,0,0,1.99494,555.069,114.709)"
font-family="Ubuntu" font-size="11" font-weight="400" font-style="normal" 
>
</g>

<g fill="none" stroke="#000000" stroke-opacity="1" stroke-width="1" stroke-linecap="square" stroke-linejoin="bevel" transform="matrix(1.99494,0,0,1.99494,0.00159595,188.641)"
font-family="Ubuntu" font-size="11" font-weight="400" font-style="normal" 
>
</g>

<g fill="#000000" fill-opacity="1" stroke="#000000" stroke-opacity="1" stroke-width="1" stroke-linecap="square" stroke-linejoin="round" transform="matrix(1.99494,0,0,1.99494,0.00159595,188.641)"
font-family="Ubuntu" font-size="11" font-weight="400" font-style="normal" 
>
<path vector-effect="none" fill-rule="evenodd" d="M369.82,-22.56 L369.82,-19.032 L379.9,-22.56 L369.82,-26.088 L369.82,-22.56"/>
</g>

<g fill="none" stroke="#000000" stroke-opacity="1" stroke-width="1" stroke-linecap="square" stroke-linejoin="bevel" transform="matrix(1.99494,0,0,1.99494,0.00159595,188.641)"
font-family="Ubuntu" font-size="11" font-weight="400" font-style="normal" 
>
</g>

<g fill="none" stroke="#000000" stroke-opacity="1" stroke-width="1" stroke-linecap="square" stroke-linejoin="bevel" transform="matrix(1.99494,0,0,1.99494,0.00159595,188.641)"
font-family="Ubuntu" font-size="11" font-weight="400" font-style="normal" 
>
</g>

<g fill="none" stroke="#000000" stroke-opacity="1" stroke-width="1" stroke-linecap="square" stroke-linejoin="bevel" transform="matrix(1.99494,0,0,1.99494,0.00159595,188.641)"
font-family="Ubuntu" font-size="11" font-weight="400" font-style="normal" 
>
</g>

<g fill="none" stroke="#000000" stroke-opacity="1" stroke-width="1" stroke-linecap="square" stroke-linejoin="bevel" transform="matrix(1.99494,0,0,1.99494,0.00159595,188.641)"
font-family="Ubuntu" font-size="11" font-weight="400" font-style="normal" 
>
</g>

<g fill="none" stroke="#000000" stroke-opacity="1" stroke-width="1" stroke-linecap="square" stroke-linejoin="round" transform="matrix(1.99494,0,0,1.99494,0.00159595,188.641)"
font-family="Ubuntu" font-size="11" font-weight="400" font-style="normal" 
>
<path vector-effect="none" fill-rule="evenodd" d="M408.13,-9.0733 C396.25,-6.7788 383.76,-4.7537 371.98,-3.5601 C320.24,1.6821 306.84,0.19594 254.98,-3.5601 C236.68,-4.8856 217.04,-7.2438 198.7,-9.858 "/>
</g>

<g fill="none" stroke="#000000" stroke-opacity="1" stroke-width="1" stroke-linecap="square" stroke-linejoin="bevel" transform="matrix(1.99494,0,0,1.99494,0.00159595,188.641)"
font-family="Ubuntu" font-size="11" font-weight="400" font-style="normal" 
>
</g>

<g fill="none" stroke="#000000" stroke-opacity="1" stroke-width="1" stroke-linecap="square" stroke-linejoin="bevel" transform="matrix(1.99494,0,0,1.99494,535.758,152.613)"
font-family="Ubuntu" font-size="11" font-weight="400" font-style="normal" 
>
</g>

<g fill="none" stroke="#000000" stroke-opacity="1" stroke-width="1" stroke-linecap="square" stroke-linejoin="bevel" transform="matrix(1.99494,0,0,1.99494,535.758,152.613)"
font-family="sans" font-size="11" font-weight="100" font-style="normal" 
>
</g>

<g fill="#000000" fill-opacity="1" stroke="#000000" stroke-opacity="1" stroke-width="1" stroke-linecap="square" stroke-linejoin="round" transform="matrix(1.99494,0,0,1.99494,535.758,152.613)"
font-family="sans" font-size="11" font-weight="100" font-style="normal" 
>
<path vector-effect="none" fill-rule="nonzero" d="M2.79688,2.98438 L3.70313,2.98438 L0.90625,12.0156 L0,12.0156 L2.79688,2.98438 M5.71875,3.28125 L5.71875,4.98438 L7.75,4.98438 L7.75,5.75 L5.71875,5.75 L5.71875,9.01563 C5.71875,9.50521 5.78646,9.82031 5.92188,9.96094 C6.05729,10.1016 6.32813,10.1719 6.73438,10.1719 L7.75,10.1719 L7.75,11 L6.73438,11 C5.97396,11 5.44792,10.8568 5.15625,10.5703 C4.86458,10.2839 4.71875,9.76563 4.71875,9.01563 L4.71875,5.75 L4,5.75 L4,4.98438 L4.71875,4.98438 L4.71875,3.28125 L5.71875,3.28125 M8.95313,8.625 L8.95313,4.98438 L9.9375,4.98438 L9.9375,8.59375 C9.9375,9.15625 10.0495,9.58073 10.2734,9.86719 C10.4974,10.1536 10.8281,10.2969 11.2656,10.2969 C11.8073,10.2969 12.2318,10.1276 12.5391,9.78906 C12.8464,9.45052 13,8.98438 13,8.39063 L13,4.98438 L13.9844,4.98438 L13.9844,11 L13,11 L13,10.0781 C12.7604,10.4427 12.4818,10.7135 12.1641,10.8906 C11.8464,11.0677 11.4792,11.1563 11.0625,11.1563 C10.375,11.1563 9.85156,10.9401 9.49219,10.5078 C9.13281,10.0755 8.95313,9.44792 8.95313,8.625 M19.5,5.90625 C19.3958,5.84375 19.2786,5.79688 19.1484,5.76563 C19.0182,5.73438 18.875,5.71875 18.7188,5.71875 C18.1563,5.71875 17.7266,5.90104 17.4297,6.26563 C17.1328,6.63021 16.9844,7.15104 16.9844,7.82813 L16.9844,11 L15.9844,11 L15.9844,4.98438 L16.9844,4.98438 L16.9844,5.92188 C17.1823,5.55729 17.4479,5.28646 17.7813,5.10938 C18.1146,4.93229 18.5208,4.84375 19,4.84375 C19.0729,4.84375 19.1484,4.84635 19.2266,4.85156 C19.3047,4.85677 19.3958,4.86979 19.5,4.89063 L19.5,5.90625 M21.5156,3.28125 L21.5156,4.98438 L23.5469,4.98438 L23.5469,5.75 L21.5156,5.75 L21.5156,9.01563 C21.5156,9.50521 21.5833,9.82031 21.7188,9.96094 C21.8542,10.1016 22.125,10.1719 22.5313,10.1719 L23.5469,10.1719 L23.5469,11 L22.5313,11 C21.7708,11 21.2448,10.8568 20.9531,10.5703 C20.6615,10.2839 20.5156,9.76563 20.5156,9.01563 L20.5156,5.75 L19.7969,5.75 L19.7969,4.98438 L20.5156,4.98438 L20.5156,3.28125 L21.5156,3.28125 M24.8438,2.64063 L25.8438,2.64063 L25.8438,11 L24.8438,11 L24.8438,2.64063 M33.0469,7.75 L33.0469,8.23438 L28.5,8.23438 C28.5417,8.91146 28.7448,9.42708 29.1094,9.78125 C29.474,10.1354 29.9844,10.3125 30.6406,10.3125 C31.026,10.3125 31.3958,10.2656 31.75,10.1719 C32.1042,10.0781 32.4583,9.94271 32.8125,9.76563 L32.8125,10.6875 C32.4583,10.8438 32.0938,10.9609 31.7188,11.0391 C31.3438,11.1172 30.9688,11.1563 30.5938,11.1563 C29.625,11.1563 28.862,10.8776 28.3047,10.3203 C27.7474,9.76302 27.4688,9.00521 27.4688,8.04688 C27.4688,7.06771 27.7344,6.28906 28.2656,5.71094 C28.7969,5.13281 29.5156,4.84375 30.4219,4.84375 C31.224,4.84375 31.862,5.10417 32.3359,5.625 C32.8099,6.14583 33.0469,6.85417 33.0469,7.75 M32.0469,7.45313 C32.0469,6.91146 31.8984,6.47917 31.6016,6.15625 C31.3047,5.83333 30.9115,5.67188 30.4219,5.67188 C29.8698,5.67188 29.4297,5.82813 29.1016,6.14063 C28.7734,6.45313 28.5833,6.89063 28.5313,7.45313 L32.0469,7.45313 M34.9844,10.0938 L36.7656,10.0938 L36.7656,3.96875 L34.8281,4.35938 L34.8281,3.375 L36.75,2.98438 L37.8438,2.98438 L37.8438,10.0938 L39.6094,10.0938 L39.6094,11 L34.9844,11 L34.9844,10.0938 M43.4063,2.98438 L44.3125,2.98438 L41.5156,12.0156 L40.6094,12.0156 L43.4063,2.98438 M49.6719,5.21875 L49.6719,6.14063 C49.401,5.98438 49.125,5.86719 48.8438,5.78906 C48.5625,5.71094 48.276,5.67188 47.9844,5.67188 C47.349,5.67188 46.8542,5.875 46.5,6.28125 C46.1458,6.6875 45.9688,7.26042 45.9688,8 C45.9688,8.72917 46.1458,9.29688 46.5,9.70313 C46.8542,10.1094 47.349,10.3125 47.9844,10.3125 C48.276,10.3125 48.5625,10.276 48.8438,10.2031 C49.125,10.1302 49.401,10.0156 49.6719,9.85938 L49.6719,10.7656 C49.401,10.901 49.1172,11 48.8203,11.0625 C48.5234,11.125 48.2083,11.1563 47.875,11.1563 C46.9688,11.1563 46.25,10.8724 45.7188,10.3047 C45.1875,9.73698 44.9219,8.96875 44.9219,8 C44.9219,7.02083 45.1901,6.25 45.7266,5.6875 C46.263,5.125 47,4.84375 47.9375,4.84375 C48.25,4.84375 48.5495,4.875 48.8359,4.9375 C49.1224,5 49.401,5.09375 49.6719,5.21875 M56.0781,6.14063 C56.3281,5.69271 56.625,5.36458 56.9688,5.15625 C57.3125,4.94792 57.7188,4.84375 58.1875,4.84375 C58.8125,4.84375 59.2943,5.0625 59.6328,5.5 C59.9714,5.9375 60.1406,6.5625 60.1406,7.375 L60.1406,11 L59.1406,11 L59.1406,7.40625 C59.1406,6.82292 59.0391,6.39323 58.8359,6.11719 C58.6328,5.84115 58.3229,5.70313 57.9063,5.70313 C57.3958,5.70313 56.9922,5.8724 56.6953,6.21094 C56.3984,6.54948 56.25,7.01042 56.25,7.59375 L56.25,11 L55.25,11 L55.25,7.40625 C55.25,6.82292 55.1484,6.39323 54.9453,6.11719 C54.7422,5.84115 54.4271,5.70313 54,5.70313 C53.5,5.70313 53.1016,5.8724 52.8047,6.21094 C52.5078,6.54948 52.3594,7.01042 52.3594,7.59375 L52.3594,11 L51.3594,11 L51.3594,4.98438 L52.3594,4.98438 L52.3594,5.92188 C52.5781,5.54688 52.8464,5.27344 53.1641,5.10156 C53.4818,4.92969 53.8542,4.84375 54.2813,4.84375 C54.7188,4.84375 55.0911,4.95313 55.3984,5.17188 C55.7057,5.39063 55.9323,5.71354 56.0781,6.14063 M66.0625,5.89063 L66.0625,2.64063 L67.0469,2.64063 L67.0469,11 L66.0625,11 L66.0625,10.0938 C65.8542,10.4583 65.5911,10.7266 65.2734,10.8984 C64.9557,11.0703 64.5729,11.1563 64.125,11.1563 C63.4063,11.1563 62.8177,10.8672 62.3594,10.2891 C61.901,9.71094 61.6719,8.94792 61.6719,8 C61.6719,7.05208 61.901,6.28906 62.3594,5.71094 C62.8177,5.13281 63.4063,4.84375 64.125,4.84375 C64.5729,4.84375 64.9557,4.92969 65.2734,5.10156 C65.5911,5.27344 65.8542,5.53646 66.0625,5.89063 M62.6875,8 C62.6875,8.72917 62.8385,9.29948 63.1406,9.71094 C63.4427,10.1224 63.8542,10.3281 64.375,10.3281 C64.8958,10.3281 65.3073,10.1224 65.6094,9.71094 C65.9115,9.29948 66.0625,8.72917 66.0625,8 C66.0625,7.27083 65.9115,6.70052 65.6094,6.28906 C65.3073,5.8776 64.8958,5.67188 64.375,5.67188 C63.8542,5.67188 63.4427,5.8776 63.1406,6.28906 C62.8385,6.70052 62.6875,7.27083 62.6875,8 M73.6406,12.8281 L73.6406,13.5938 L67.9219,13.5938 L67.9219,12.8281 L73.6406,12.8281 M73.8594,4.98438 L74.9063,4.98438 L76.7813,10.0313 L78.6719,4.98438 L79.7188,4.98438 L77.4531,11 L76.1094,11 L73.8594,4.98438 M86.2188,7.75 L86.2188,8.23438 L81.6719,8.23438 C81.7135,8.91146 81.9167,9.42708 82.2813,9.78125 C82.6458,10.1354 83.1563,10.3125 83.8125,10.3125 C84.1979,10.3125 84.5677,10.2656 84.9219,10.1719 C85.276,10.0781 85.6302,9.94271 85.9844,9.76563 L85.9844,10.6875 C85.6302,10.8438 85.2656,10.9609 84.8906,11.0391 C84.5156,11.1172 84.1406,11.1563 83.7656,11.1563 C82.7969,11.1563 82.0339,10.8776 81.4766,10.3203 C80.9193,9.76302 80.6406,9.00521 80.6406,8.04688 C80.6406,7.06771 80.9063,6.28906 81.4375,5.71094 C81.9688,5.13281 82.6875,4.84375 83.5938,4.84375 C84.3958,4.84375 85.0339,5.10417 85.5078,5.625 C85.9818,6.14583 86.2188,6.85417 86.2188,7.75 M85.2188,7.45313 C85.2188,6.91146 85.0703,6.47917 84.7734,6.15625 C84.4766,5.83333 84.0833,5.67188 83.5938,5.67188 C83.0417,5.67188 82.6016,5.82813 82.2734,6.14063 C81.9453,6.45313 81.7552,6.89063 81.7031,7.45313 L85.2188,7.45313 M87.8281,2.64063 L88.8281,2.64063 L88.8281,11 L87.8281,11 L87.8281,2.64063"/>
</g>

<g fill="none" stroke="#000000" stroke-opacity="1" stroke-width="1" stroke-linecap="square" stroke-linejoin="bevel" transform="matrix(1.99494,0,0,1.99494,535.758,152.613)"
font-family="sans" font-size="11" font-weight="100" font-style="normal" 
>
</g>

<g fill="none" stroke="#000000" stroke-opacity="1" stroke-width="1" stroke-linecap="square" stroke-linejoin="bevel" transform="matrix(1.99494,0,0,1.99494,535.758,152.613)"
font-family="Ubuntu" font-size="11" font-weight="400" font-style="normal" 
>
</g>

<g fill="none" stroke="#000000" stroke-opacity="1" stroke-width="1" stroke-linecap="square" stroke-linejoin="bevel" transform="matrix(1.99494,0,0,1.99494,0.00159595,188.641)"
font-family="Ubuntu" font-size="11" font-weight="400" font-style="normal" 
>
</g>

<g fill="#000000" fill-opacity="1" stroke="#000000" stroke-opacity="1" stroke-width="1" stroke-linecap="square" stroke-linejoin="round" transform="matrix(1.99494,0,0,1.99494,0.00159595,188.641)"
font-family="Ubuntu" font-size="11" font-weight="400" font-style="normal" 
>
<path vector-effect="none" fill-rule="evenodd" d="M198.7,-9.858 L199.216,-13.3685 L188.67,-11.332 L198.184,-6.3475 L198.7,-9.858"/>
</g>

<g fill="none" stroke="#000000" stroke-opacity="1" stroke-width="1" stroke-linecap="square" stroke-linejoin="bevel" transform="matrix(1.99494,0,0,1.99494,0.00159595,188.641)"
font-family="Ubuntu" font-size="11" font-weight="400" font-style="normal" 
>
</g>

<g fill="none" stroke="#000000" stroke-opacity="1" stroke-width="1" stroke-linecap="square" stroke-linejoin="bevel" transform="matrix(1,0,0,1,0,0)"
font-family="Ubuntu" font-size="11" font-weight="400" font-style="normal" 
>
</g>
</g>
</svg>
